<?xml version="1.0" ?><!-- Uploaded to: SVG Repo, www.svgrepo.com, Generator: SVG Repo Mixer Tools -->
<svg fill="#000000" width="800px" height="800px" viewBox="0 0 64 64" data-name="Layer 1" id="Layer_1" xmlns="http://www.w3.org/2000/svg"><title/><path d="M55.88,45H42.32a2,2,0,0,1,0-4H53.88V37.55a2,2,0,0,1,4,0V43A2,2,0,0,1,55.88,45Z"/><path d="M21.87,45H8.13a2,2,0,0,1-2-2V10.78a2,2,0,0,1,2-2H55.88a2,2,0,0,1,2,2v16a2,2,0,0,1-4,0v-14H10.13V41H21.87a2,2,0,0,1,0,4Z"/><path d="M33.19,19.3H24.77a2,2,0,0,1,0-4h8.42a2,2,0,0,1,0,4Z"/><path d="M39.23,19.3H39a2,2,0,0,1,0-4h.25a2,2,0,0,1,0,4Z"/><path d="M42.13,53.72H21.87a2,2,0,0,1-2-2V43a2,2,0,0,1,2-2H42.13a2,2,0,0,1,2,2v8.68A2,2,0,0,1,42.13,53.72Zm-18.26-4H40.13V45H23.87Z"/><path d="M48.4,53.72H15.6a2,2,0,1,1,0-4H48.4a2,2,0,1,1,0,4Z"/></svg>